%TF.GenerationSoftware,KiCad,Pcbnew,9.0.7*%
%TF.CreationDate,2026-06-09T22:22:04+05:30*%
%TF.ProjectId,USB TYPE-C,55534220-5459-4504-952d-432e6b696361,rev?*%
%TF.SameCoordinates,Original*%
%TF.FileFunction,Copper,L1,Top*%
%TF.FilePolarity,Positive*%
%FSLAX46Y46*%
G04 Gerber Fmt 4.6, Leading zero omitted, Abs format (unit mm)*
G04 Created by KiCad (PCBNEW 9.0.7) date 2026-06-09 22:22:04*
%MOMM*%
%LPD*%
G01*
G04 APERTURE LIST*
G04 Aperture macros list*
%AMRoundRect*
0 Rectangle with rounded corners*
0 $1 Rounding radius*
0 $2 $3 $4 $5 $6 $7 $8 $9 X,Y pos of 4 corners*
0 Add a 4 corners polygon primitive as box body*
4,1,4,$2,$3,$4,$5,$6,$7,$8,$9,$2,$3,0*
0 Add four circle primitives for the rounded corners*
1,1,$1+$1,$2,$3*
1,1,$1+$1,$4,$5*
1,1,$1+$1,$6,$7*
1,1,$1+$1,$8,$9*
0 Add four rect primitives between the rounded corners*
20,1,$1+$1,$2,$3,$4,$5,0*
20,1,$1+$1,$4,$5,$6,$7,0*
20,1,$1+$1,$6,$7,$8,$9,0*
20,1,$1+$1,$8,$9,$2,$3,0*%
G04 Aperture macros list end*
%TA.AperFunction,ComponentPad*%
%ADD10R,1.700000X1.700000*%
%TD*%
%TA.AperFunction,ComponentPad*%
%ADD11C,1.700000*%
%TD*%
%TA.AperFunction,SMDPad,CuDef*%
%ADD12RoundRect,0.243750X-0.243750X-0.456250X0.243750X-0.456250X0.243750X0.456250X-0.243750X0.456250X0*%
%TD*%
%TA.AperFunction,SMDPad,CuDef*%
%ADD13RoundRect,0.250000X-0.250000X-0.475000X0.250000X-0.475000X0.250000X0.475000X-0.250000X0.475000X0*%
%TD*%
%TA.AperFunction,SMDPad,CuDef*%
%ADD14RoundRect,0.250000X-0.262500X-0.450000X0.262500X-0.450000X0.262500X0.450000X-0.262500X0.450000X0*%
%TD*%
%TA.AperFunction,SMDPad,CuDef*%
%ADD15R,0.600000X1.450000*%
%TD*%
%TA.AperFunction,SMDPad,CuDef*%
%ADD16R,0.300000X1.450000*%
%TD*%
%TA.AperFunction,HeatsinkPad*%
%ADD17O,1.000000X2.100000*%
%TD*%
%TA.AperFunction,HeatsinkPad*%
%ADD18O,1.000000X1.600000*%
%TD*%
%TA.AperFunction,Conductor*%
%ADD19C,0.200000*%
%TD*%
G04 APERTURE END LIST*
D10*
%TO.P,J2,1,Pin_1*%
%TO.N,+5V*%
X128800000Y-100775000D03*
D11*
%TO.P,J2,2,Pin_2*%
%TO.N,GND*%
X128800000Y-103315000D03*
%TD*%
D12*
%TO.P,D1,1,K*%
%TO.N,GND*%
X137600000Y-101600000D03*
%TO.P,D1,2,A*%
%TO.N,Net-(D1-A)*%
X139475000Y-101600000D03*
%TD*%
D13*
%TO.P,C2,1*%
%TO.N,GND*%
X132650000Y-104000000D03*
%TO.P,C2,2*%
%TO.N,+5V*%
X134550000Y-104000000D03*
%TD*%
D14*
%TO.P,R3,1*%
%TO.N,+5V*%
X142975000Y-98400000D03*
%TO.P,R3,2*%
%TO.N,Net-(D1-A)*%
X144800000Y-98400000D03*
%TD*%
%TO.P,R2,1*%
%TO.N,GND*%
X142975000Y-93600000D03*
%TO.P,R2,2*%
%TO.N,Net-(J1-CC1)*%
X144800000Y-93600000D03*
%TD*%
%TO.P,R1,1*%
%TO.N,GND*%
X142975000Y-88800000D03*
%TO.P,R1,2*%
%TO.N,Net-(J1-CC2)*%
X144800000Y-88800000D03*
%TD*%
D15*
%TO.P,J1,A1,GND*%
%TO.N,GND*%
X125230000Y-88505000D03*
%TO.P,J1,A4,VBUS*%
%TO.N,+5V*%
X126030000Y-88505000D03*
D16*
%TO.P,J1,A5,CC1*%
%TO.N,Net-(J1-CC1)*%
X127230000Y-88505000D03*
%TO.P,J1,A6,D+*%
%TO.N,unconnected-(J1-D+-PadA6)*%
X128230000Y-88505000D03*
%TO.P,J1,A7,D-*%
%TO.N,unconnected-(J1-D--PadA7)*%
X128730000Y-88505000D03*
%TO.P,J1,A8*%
%TO.N,N/C*%
X129730000Y-88505000D03*
D15*
%TO.P,J1,A9,VBUS*%
%TO.N,+5V*%
X130930000Y-88505000D03*
%TO.P,J1,A12,GND*%
%TO.N,GND*%
X131730000Y-88505000D03*
%TO.P,J1,B1,GND*%
X131730000Y-88505000D03*
%TO.P,J1,B4,VBUS*%
%TO.N,+5V*%
X130930000Y-88505000D03*
D16*
%TO.P,J1,B5,CC2*%
%TO.N,Net-(J1-CC2)*%
X130230000Y-88505000D03*
%TO.P,J1,B6,D+*%
%TO.N,unconnected-(J1-D+-PadB6)*%
X129230000Y-88505000D03*
%TO.P,J1,B7,D-*%
%TO.N,unconnected-(J1-D--PadB7)*%
X127730000Y-88505000D03*
%TO.P,J1,B8*%
%TO.N,N/C*%
X126730000Y-88505000D03*
D15*
%TO.P,J1,B9,VBUS*%
%TO.N,+5V*%
X126030000Y-88505000D03*
%TO.P,J1,B12,GND*%
%TO.N,GND*%
X125230000Y-88505000D03*
D17*
%TO.P,J1,S1,SHIELD*%
%TO.N,unconnected-(J1-SHIELD-PadS1)*%
X124160000Y-89420000D03*
D18*
X124160000Y-93600000D03*
D17*
X132800000Y-89420000D03*
D18*
X132800000Y-93600000D03*
%TD*%
D13*
%TO.P,C1,1*%
%TO.N,GND*%
X132650000Y-100000000D03*
%TO.P,C1,2*%
%TO.N,+5V*%
X134550000Y-100000000D03*
%TD*%
D19*
%TO.N,+5V*%
X128800000Y-100775000D02*
X131325000Y-100775000D01*
X136150000Y-98400000D02*
X134996008Y-98400000D01*
X134550000Y-100000000D02*
X134550000Y-104000000D01*
X126030000Y-89433992D02*
X126030000Y-88505000D01*
X134996008Y-98400000D02*
X126030000Y-89433992D01*
X131325000Y-100775000D02*
X134550000Y-104000000D01*
X134550000Y-100000000D02*
X136150000Y-98400000D01*
X136150000Y-98400000D02*
X142975000Y-98400000D01*
%TO.N,GND*%
X131965000Y-103315000D02*
X132650000Y-104000000D01*
X127649000Y-99624000D02*
X127649000Y-102164000D01*
X132235000Y-88000000D02*
X131730000Y-88505000D01*
X145613500Y-96238500D02*
X143976000Y-94601000D01*
X125732000Y-87078000D02*
X144576660Y-87078000D01*
X137600000Y-101600000D02*
X137600000Y-102461160D01*
X145613500Y-88114840D02*
X145613500Y-91438500D01*
X144576660Y-87078000D02*
X145613500Y-88114840D01*
X142175000Y-88000000D02*
X132235000Y-88000000D01*
X138601000Y-102601000D02*
X142097660Y-102601000D01*
X125230000Y-88505000D02*
X125230000Y-87580000D01*
X142975000Y-88800000D02*
X142175000Y-88000000D01*
X142975000Y-93600000D02*
X143976000Y-94601000D01*
X131200000Y-99624000D02*
X127649000Y-99624000D01*
X145613500Y-91438500D02*
X142975000Y-88800000D01*
X142097660Y-102601000D02*
X145613500Y-99085160D01*
X128800000Y-103315000D02*
X131965000Y-103315000D01*
X145613500Y-94285160D02*
X145613500Y-91438500D01*
X132650000Y-100000000D02*
X131576000Y-100000000D01*
X132800000Y-100000000D02*
X132650000Y-100000000D01*
X131576000Y-100000000D02*
X131200000Y-99624000D01*
X125230000Y-87580000D02*
X125732000Y-87078000D01*
X137600000Y-102461160D02*
X135035160Y-105026000D01*
X127649000Y-102164000D02*
X128800000Y-103315000D01*
X145613500Y-99085160D02*
X145613500Y-96238500D01*
X133676000Y-105026000D02*
X132650000Y-104000000D01*
X145297660Y-94601000D02*
X145613500Y-94285160D01*
X143976000Y-94601000D02*
X145297660Y-94601000D01*
X135035160Y-105026000D02*
X133676000Y-105026000D01*
X137600000Y-101600000D02*
X138601000Y-102601000D01*
%TO.N,Net-(D1-A)*%
X141600000Y-101600000D02*
X144800000Y-98400000D01*
X139475000Y-101600000D02*
X141600000Y-101600000D01*
%TO.N,Net-(J1-CC1)*%
X127230000Y-88505000D02*
X127230000Y-88770000D01*
X127230000Y-89482000D02*
X127230000Y-88505000D01*
X129748000Y-92000000D02*
X127230000Y-89482000D01*
X144800000Y-93600000D02*
X143200000Y-92000000D01*
X127200000Y-88800000D02*
X127230000Y-88770000D01*
X143200000Y-92000000D02*
X129748000Y-92000000D01*
%TO.N,unconnected-(J1-SHIELD-PadS1)*%
X132800000Y-89600000D02*
X132800000Y-89420000D01*
X124160000Y-93600000D02*
X124160000Y-89420000D01*
X132800000Y-88800000D02*
X132800000Y-89420000D01*
%TO.N,Net-(J1-CC2)*%
X144800000Y-88800000D02*
X143479000Y-87479000D01*
X130230000Y-87578000D02*
X130230000Y-88505000D01*
X143479000Y-87479000D02*
X130329000Y-87479000D01*
X130329000Y-87479000D02*
X130230000Y-87578000D01*
%TD*%
%TA.AperFunction,Conductor*%
%TO.N,GND*%
G36*
X149543039Y-85619685D02*
G01*
X149588794Y-85672489D01*
X149600000Y-85724000D01*
X149600000Y-107876000D01*
X149580315Y-107943039D01*
X149527511Y-107988794D01*
X149476000Y-108000000D01*
X123324000Y-108000000D01*
X123256961Y-107980315D01*
X123211206Y-107927511D01*
X123200000Y-107876000D01*
X123200000Y-94654284D01*
X123219685Y-94587245D01*
X123272489Y-94541490D01*
X123341647Y-94531546D01*
X123405203Y-94560571D01*
X123411681Y-94566603D01*
X123522214Y-94677136D01*
X123522218Y-94677139D01*
X123686079Y-94786628D01*
X123686092Y-94786635D01*
X123868160Y-94862049D01*
X123868165Y-94862051D01*
X123868169Y-94862051D01*
X123868170Y-94862052D01*
X124061456Y-94900500D01*
X124061459Y-94900500D01*
X124258543Y-94900500D01*
X124388582Y-94874632D01*
X124451835Y-94862051D01*
X124625788Y-94789998D01*
X124633907Y-94786635D01*
X124633907Y-94786634D01*
X124633914Y-94786632D01*
X124797782Y-94677139D01*
X124937139Y-94537782D01*
X125046632Y-94373914D01*
X125122051Y-94191835D01*
X125151922Y-94041664D01*
X125160500Y-93998543D01*
X125160500Y-93201456D01*
X125122052Y-93008170D01*
X125122051Y-93008169D01*
X125122051Y-93008165D01*
X125117554Y-92997309D01*
X125046635Y-92826092D01*
X125046628Y-92826079D01*
X124937139Y-92662218D01*
X124937136Y-92662214D01*
X124796819Y-92521897D01*
X124763334Y-92460574D01*
X124760500Y-92434216D01*
X124760500Y-90835784D01*
X124780185Y-90768745D01*
X124796819Y-90748103D01*
X124937136Y-90607785D01*
X124937139Y-90607782D01*
X125050017Y-90438848D01*
X125051474Y-90439821D01*
X125094595Y-90395903D01*
X125162729Y-90380426D01*
X125228414Y-90404242D01*
X125230502Y-90405809D01*
X125236632Y-90410512D01*
X125236635Y-90410515D01*
X125367865Y-90486281D01*
X125514234Y-90525500D01*
X125514236Y-90525500D01*
X125665764Y-90525500D01*
X125665766Y-90525500D01*
X125812135Y-90486281D01*
X125943365Y-90410515D01*
X125962645Y-90391234D01*
X126023963Y-90357750D01*
X126093655Y-90362732D01*
X126138007Y-90391234D01*
X134311609Y-98564836D01*
X134345094Y-98626159D01*
X134340110Y-98695851D01*
X134298238Y-98751784D01*
X134236531Y-98775875D01*
X134147202Y-98785001D01*
X134147200Y-98785001D01*
X133980668Y-98840185D01*
X133980663Y-98840187D01*
X133831342Y-98932289D01*
X133707288Y-99056343D01*
X133707283Y-99056349D01*
X133705241Y-99059661D01*
X133703247Y-99061453D01*
X133702807Y-99062011D01*
X133702711Y-99061935D01*
X133653291Y-99106383D01*
X133584328Y-99117602D01*
X133520247Y-99089755D01*
X133494168Y-99059656D01*
X133492319Y-99056659D01*
X133492316Y-99056655D01*
X133368345Y-98932684D01*
X133219124Y-98840643D01*
X133219119Y-98840641D01*
X133052697Y-98785494D01*
X133052690Y-98785493D01*
X132949986Y-98775000D01*
X132900000Y-98775000D01*
X132900000Y-99876000D01*
X132880315Y-99943039D01*
X132827511Y-99988794D01*
X132776000Y-100000000D01*
X132650000Y-100000000D01*
X132650000Y-100126000D01*
X132630315Y-100193039D01*
X132577511Y-100238794D01*
X132526000Y-100250000D01*
X131649898Y-100250000D01*
X131587897Y-100233386D01*
X131556785Y-100215423D01*
X131404057Y-100174499D01*
X131245943Y-100174499D01*
X131238347Y-100174499D01*
X131238331Y-100174500D01*
X130274499Y-100174500D01*
X130207460Y-100154815D01*
X130161705Y-100102011D01*
X130150499Y-100050500D01*
X130150499Y-99877129D01*
X130150498Y-99877123D01*
X130150497Y-99877116D01*
X130144091Y-99817517D01*
X130142188Y-99812416D01*
X130093797Y-99682671D01*
X130093793Y-99682664D01*
X130007547Y-99567455D01*
X130007544Y-99567452D01*
X129892335Y-99481206D01*
X129892328Y-99481202D01*
X129875734Y-99475013D01*
X131650000Y-99475013D01*
X131650000Y-99750000D01*
X132400000Y-99750000D01*
X132400000Y-98775000D01*
X132399999Y-98774999D01*
X132350029Y-98775000D01*
X132350011Y-98775001D01*
X132247302Y-98785494D01*
X132080880Y-98840641D01*
X132080875Y-98840643D01*
X131931654Y-98932684D01*
X131807684Y-99056654D01*
X131715643Y-99205875D01*
X131715641Y-99205880D01*
X131660494Y-99372302D01*
X131660493Y-99372309D01*
X131650000Y-99475013D01*
X129875734Y-99475013D01*
X129757482Y-99430908D01*
X129757483Y-99430908D01*
X129697883Y-99424501D01*
X129697881Y-99424500D01*
X129697873Y-99424500D01*
X129697864Y-99424500D01*
X127902129Y-99424500D01*
X127902123Y-99424501D01*
X127842516Y-99430908D01*
X127707671Y-99481202D01*
X127707664Y-99481206D01*
X127592455Y-99567452D01*
X127592452Y-99567455D01*
X127506206Y-99682664D01*
X127506202Y-99682671D01*
X127455908Y-99817517D01*
X127452552Y-99848736D01*
X127449501Y-99877123D01*
X127449500Y-99877135D01*
X127449500Y-101672870D01*
X127449501Y-101672876D01*
X127455908Y-101732483D01*
X127506202Y-101867328D01*
X127506206Y-101867335D01*
X127592452Y-101982544D01*
X127592455Y-101982547D01*
X127707664Y-102068793D01*
X127707671Y-102068797D01*
X127752618Y-102085561D01*
X127842517Y-102119091D01*
X127902127Y-102125500D01*
X127912685Y-102125499D01*
X127979723Y-102145179D01*
X128000372Y-102161818D01*
X128670591Y-102832037D01*
X128607007Y-102849075D01*
X128492993Y-102914901D01*
X128399901Y-103007993D01*
X128334075Y-103122007D01*
X128317037Y-103185591D01*
X127684728Y-102553282D01*
X127684727Y-102553282D01*
X127645380Y-102607439D01*
X127548904Y-102796782D01*
X127483242Y-102998869D01*
X127483242Y-102998872D01*
X127450000Y-103208753D01*
X127450000Y-103421246D01*
X127483242Y-103631127D01*
X127483242Y-103631130D01*
X127548904Y-103833217D01*
X127645375Y-104022550D01*
X127684728Y-104076716D01*
X128317037Y-103444408D01*
X128334075Y-103507993D01*
X128399901Y-103622007D01*
X128492993Y-103715099D01*
X128607007Y-103780925D01*
X128670590Y-103797962D01*
X128038282Y-104430269D01*
X128038282Y-104430270D01*
X128092449Y-104469624D01*
X128281782Y-104566095D01*
X128483870Y-104631757D01*
X128693754Y-104665000D01*
X128906246Y-104665000D01*
X129116127Y-104631757D01*
X129116130Y-104631757D01*
X129318217Y-104566095D01*
X129398897Y-104524986D01*
X131650001Y-104524986D01*
X131660494Y-104627697D01*
X131715641Y-104794119D01*
X131715643Y-104794124D01*
X131807684Y-104943345D01*
X131931654Y-105067315D01*
X132080875Y-105159356D01*
X132080880Y-105159358D01*
X132247302Y-105214505D01*
X132247309Y-105214506D01*
X132350019Y-105224999D01*
X132399999Y-105224998D01*
X132400000Y-105224998D01*
X132400000Y-104250000D01*
X131650001Y-104250000D01*
X131650001Y-104524986D01*
X129398897Y-104524986D01*
X129507554Y-104469622D01*
X129561716Y-104430270D01*
X129561717Y-104430270D01*
X128929408Y-103797962D01*
X128992993Y-103780925D01*
X129107007Y-103715099D01*
X129200099Y-103622007D01*
X129265925Y-103507993D01*
X129282962Y-103444409D01*
X129915270Y-104076717D01*
X129915270Y-104076716D01*
X129954622Y-104022554D01*
X130051095Y-103833217D01*
X130116757Y-103631130D01*
X130116757Y-103631127D01*
X130150000Y-103421246D01*
X130150000Y-103208753D01*
X130116757Y-102998872D01*
X130116757Y-102998869D01*
X130051095Y-102796782D01*
X129954624Y-102607449D01*
X129915270Y-102553282D01*
X129915269Y-102553282D01*
X129282962Y-103185590D01*
X129265925Y-103122007D01*
X129200099Y-103007993D01*
X129107007Y-102914901D01*
X128992993Y-102849075D01*
X128929409Y-102832037D01*
X129599627Y-102161818D01*
X129660950Y-102128333D01*
X129687307Y-102125499D01*
X129697872Y-102125499D01*
X129757483Y-102119091D01*
X129892331Y-102068796D01*
X130007546Y-101982546D01*
X130093796Y-101867331D01*
X130144091Y-101732483D01*
X130150500Y-101672873D01*
X130150500Y-101499500D01*
X130170185Y-101432461D01*
X130222989Y-101386706D01*
X130274500Y-101375500D01*
X131024903Y-101375500D01*
X131091942Y-101395185D01*
X131112584Y-101411819D01*
X132284632Y-102583867D01*
X132318117Y-102645190D01*
X132313133Y-102714882D01*
X132271261Y-102770815D01*
X132235956Y-102789254D01*
X132080878Y-102840642D01*
X132080875Y-102840643D01*
X131931654Y-102932684D01*
X131807684Y-103056654D01*
X131715643Y-103205875D01*
X131715641Y-103205880D01*
X131660494Y-103372302D01*
X131660493Y-103372309D01*
X131650000Y-103475013D01*
X131650000Y-103750000D01*
X132526000Y-103750000D01*
X132593039Y-103769685D01*
X132638794Y-103822489D01*
X132650000Y-103874000D01*
X132650000Y-104000000D01*
X132776000Y-104000000D01*
X132843039Y-104019685D01*
X132888794Y-104072489D01*
X132900000Y-104124000D01*
X132900000Y-105224999D01*
X132949972Y-105224999D01*
X132949986Y-105224998D01*
X133052697Y-105214505D01*
X133219119Y-105159358D01*
X133219124Y-105159356D01*
X133368345Y-105067315D01*
X133492318Y-104943342D01*
X133494165Y-104940348D01*
X133495969Y-104938724D01*
X133496798Y-104937677D01*
X133496976Y-104937818D01*
X133546110Y-104893621D01*
X133615073Y-104882396D01*
X133679156Y-104910236D01*
X133705243Y-104940341D01*
X133707288Y-104943656D01*
X133831344Y-105067712D01*
X133980666Y-105159814D01*
X134147203Y-105214999D01*
X134249991Y-105225500D01*
X134850008Y-105225499D01*
X134850016Y-105225498D01*
X134850019Y-105225498D01*
X134906302Y-105219748D01*
X134952797Y-105214999D01*
X135119334Y-105159814D01*
X135268656Y-105067712D01*
X135392712Y-104943656D01*
X135484814Y-104794334D01*
X135539999Y-104627797D01*
X135550500Y-104525009D01*
X135550499Y-103474992D01*
X135539999Y-103372203D01*
X135484814Y-103205666D01*
X135392712Y-103056344D01*
X135268656Y-102932288D01*
X135268655Y-102932287D01*
X135209402Y-102895739D01*
X135162678Y-102843791D01*
X135150500Y-102790201D01*
X135150500Y-102105815D01*
X136612500Y-102105815D01*
X136622907Y-102207673D01*
X136677594Y-102372709D01*
X136677596Y-102372714D01*
X136768870Y-102520691D01*
X136891808Y-102643629D01*
X137039785Y-102734903D01*
X137039790Y-102734905D01*
X137204826Y-102789592D01*
X137306684Y-102799999D01*
X137306697Y-102800000D01*
X137350000Y-102800000D01*
X137350000Y-101850000D01*
X136612500Y-101850000D01*
X136612500Y-102105815D01*
X135150500Y-102105815D01*
X135150500Y-101209797D01*
X135151075Y-101207835D01*
X135150563Y-101205858D01*
X135160874Y-101174465D01*
X135170185Y-101142758D01*
X135171930Y-101140807D01*
X135172367Y-101139478D01*
X135177410Y-101134681D01*
X135196315Y-101113552D01*
X135202555Y-101108482D01*
X135225737Y-101094184D01*
X136612500Y-101094184D01*
X136612500Y-101350000D01*
X137350000Y-101350000D01*
X137350000Y-100400000D01*
X137306684Y-100400000D01*
X137204826Y-100410407D01*
X137039790Y-100465094D01*
X137039785Y-100465096D01*
X136891808Y-100556370D01*
X136768870Y-100679308D01*
X136677596Y-100827285D01*
X136677594Y-100827290D01*
X136622907Y-100992326D01*
X136612500Y-101094184D01*
X135225737Y-101094184D01*
X135268656Y-101067712D01*
X135392712Y-100943656D01*
X135484814Y-100794334D01*
X135539999Y-100627797D01*
X135550500Y-100525009D01*
X135550499Y-99900096D01*
X135570183Y-99833058D01*
X135586813Y-99812421D01*
X136362417Y-99036819D01*
X136423740Y-99003334D01*
X136450098Y-99000500D01*
X141882199Y-99000500D01*
X141949238Y-99020185D01*
X141994993Y-99072989D01*
X141999905Y-99085496D01*
X142027685Y-99169331D01*
X142027687Y-99169336D01*
X142050228Y-99205880D01*
X142119788Y-99318656D01*
X142243844Y-99442712D01*
X142393166Y-99534814D01*
X142519894Y-99576807D01*
X142577337Y-99616578D01*
X142604161Y-99681094D01*
X142591846Y-99749870D01*
X142568570Y-99782193D01*
X141387584Y-100963181D01*
X141326261Y-100996666D01*
X141299903Y-100999500D01*
X140544539Y-100999500D01*
X140477500Y-100979815D01*
X140431745Y-100927011D01*
X140426833Y-100914504D01*
X140397933Y-100827290D01*
X140397862Y-100827075D01*
X140397858Y-100827069D01*
X140397857Y-100827066D01*
X140306528Y-100679000D01*
X140306525Y-100678996D01*
X140183503Y-100555974D01*
X140183499Y-100555971D01*
X140035433Y-100464642D01*
X140035427Y-100464639D01*
X140035425Y-100464638D01*
X140035422Y-100464637D01*
X139870276Y-100409913D01*
X139768355Y-100399500D01*
X139768348Y-100399500D01*
X139181652Y-100399500D01*
X139181644Y-100399500D01*
X139079723Y-100409913D01*
X138914577Y-100464637D01*
X138914566Y-100464642D01*
X138766500Y-100555971D01*
X138766496Y-100555974D01*
X138643474Y-100678996D01*
X138643467Y-100679005D01*
X138642734Y-100680194D01*
X138642019Y-100680836D01*
X138638993Y-100684664D01*
X138638338Y-100684146D01*
X138590780Y-100726911D01*
X138521816Y-100738123D01*
X138457738Y-100710271D01*
X138435738Y-100684877D01*
X138435612Y-100684977D01*
X138433385Y-100682161D01*
X138431663Y-100680173D01*
X138431130Y-100679309D01*
X138308191Y-100556370D01*
X138160214Y-100465096D01*
X138160209Y-100465094D01*
X137995173Y-100410407D01*
X137893315Y-100400000D01*
X137850000Y-100400000D01*
X137850000Y-102800000D01*
X137893303Y-102800000D01*
X137893315Y-102799999D01*
X137995173Y-102789592D01*
X138160209Y-102734905D01*
X138160214Y-102734903D01*
X138308191Y-102643629D01*
X138431128Y-102520692D01*
X138431659Y-102519832D01*
X138432180Y-102519363D01*
X138435612Y-102515023D01*
X138436353Y-102515608D01*
X138483601Y-102473102D01*
X138552563Y-102461872D01*
X138616648Y-102489708D01*
X138638913Y-102515398D01*
X138638993Y-102515336D01*
X138640390Y-102517103D01*
X138642738Y-102519812D01*
X138643468Y-102520995D01*
X138643474Y-102521003D01*
X138766496Y-102644025D01*
X138766500Y-102644028D01*
X138914566Y-102735357D01*
X138914569Y-102735358D01*
X138914575Y-102735362D01*
X139079725Y-102790087D01*
X139181652Y-102800500D01*
X139181657Y-102800500D01*
X139768343Y-102800500D01*
X139768348Y-102800500D01*
X139870275Y-102790087D01*
X140035425Y-102735362D01*
X140183503Y-102644026D01*
X140306526Y-102521003D01*
X140397862Y-102372925D01*
X140426833Y-102285496D01*
X140466606Y-102228051D01*
X140531122Y-102201228D01*
X140544539Y-102200500D01*
X141513331Y-102200500D01*
X141513347Y-102200501D01*
X141520943Y-102200501D01*
X141679054Y-102200501D01*
X141679057Y-102200501D01*
X141831785Y-102159577D01*
X141881904Y-102130639D01*
X141968716Y-102080520D01*
X142080520Y-101968716D01*
X142080520Y-101968714D01*
X142090728Y-101958507D01*
X142090730Y-101958504D01*
X144412417Y-99636816D01*
X144473738Y-99603333D01*
X144500086Y-99600499D01*
X145112508Y-99600499D01*
X145112516Y-99600498D01*
X145112519Y-99600498D01*
X145168802Y-99594748D01*
X145215297Y-99589999D01*
X145381834Y-99534814D01*
X145531156Y-99442712D01*
X145655212Y-99318656D01*
X145747314Y-99169334D01*
X145802499Y-99002797D01*
X145813000Y-98900009D01*
X145812999Y-97899992D01*
X145802499Y-97797203D01*
X145747314Y-97630666D01*
X145655212Y-97481344D01*
X145531156Y-97357288D01*
X145381834Y-97265186D01*
X145215297Y-97210001D01*
X145215295Y-97210000D01*
X145112510Y-97199500D01*
X144487498Y-97199500D01*
X144487480Y-97199501D01*
X144384703Y-97210000D01*
X144384700Y-97210001D01*
X144218168Y-97265185D01*
X144218163Y-97265187D01*
X144068842Y-97357289D01*
X143975181Y-97450951D01*
X143913858Y-97484436D01*
X143844166Y-97479452D01*
X143799819Y-97450951D01*
X143706157Y-97357289D01*
X143706156Y-97357288D01*
X143556834Y-97265186D01*
X143390297Y-97210001D01*
X143390295Y-97210000D01*
X143287510Y-97199500D01*
X142662498Y-97199500D01*
X142662480Y-97199501D01*
X142559703Y-97210000D01*
X142559700Y-97210001D01*
X142393168Y-97265185D01*
X142393163Y-97265187D01*
X142243842Y-97357289D01*
X142119789Y-97481342D01*
X142027687Y-97630663D01*
X142027685Y-97630668D01*
X141999905Y-97714504D01*
X141960132Y-97771949D01*
X141895616Y-97798772D01*
X141882199Y-97799500D01*
X136229062Y-97799500D01*
X136229058Y-97799499D01*
X136070943Y-97799499D01*
X136070939Y-97799500D01*
X135296105Y-97799500D01*
X135229066Y-97779815D01*
X135208424Y-97763181D01*
X132546463Y-95101220D01*
X132512978Y-95039897D01*
X132517962Y-94970205D01*
X132559834Y-94914272D01*
X132625298Y-94889855D01*
X132658334Y-94891921D01*
X132687239Y-94897671D01*
X132701458Y-94900500D01*
X132701459Y-94900500D01*
X132898543Y-94900500D01*
X133028582Y-94874632D01*
X133091835Y-94862051D01*
X133265788Y-94789998D01*
X133273907Y-94786635D01*
X133273907Y-94786634D01*
X133273914Y-94786632D01*
X133437782Y-94677139D01*
X133577139Y-94537782D01*
X133686632Y-94373914D01*
X133762051Y-94191835D01*
X133780321Y-94099986D01*
X141962501Y-94099986D01*
X141972994Y-94202697D01*
X142028141Y-94369119D01*
X142028143Y-94369124D01*
X142120184Y-94518345D01*
X142244154Y-94642315D01*
X142393375Y-94734356D01*
X142393380Y-94734358D01*
X142559802Y-94789505D01*
X142559809Y-94789506D01*
X142662519Y-94799999D01*
X142724999Y-94799998D01*
X142725000Y-94799998D01*
X142725000Y-93850000D01*
X141962501Y-93850000D01*
X141962501Y-94099986D01*
X133780321Y-94099986D01*
X133791922Y-94041664D01*
X133800500Y-93998543D01*
X133800500Y-93201456D01*
X133762052Y-93008170D01*
X133762051Y-93008169D01*
X133762051Y-93008165D01*
X133757554Y-92997309D01*
X133686635Y-92826092D01*
X133686629Y-92826081D01*
X133664786Y-92793390D01*
X133643909Y-92726712D01*
X133662394Y-92659332D01*
X133714373Y-92612643D01*
X133767889Y-92600500D01*
X141948066Y-92600500D01*
X142015105Y-92620185D01*
X142060860Y-92672989D01*
X142070804Y-92742147D01*
X142053604Y-92789597D01*
X142028146Y-92830869D01*
X142028141Y-92830880D01*
X141972994Y-92997302D01*
X141972993Y-92997309D01*
X141962500Y-93100013D01*
X141962500Y-93350000D01*
X142851000Y-93350000D01*
X142918039Y-93369685D01*
X142963794Y-93422489D01*
X142975000Y-93474000D01*
X142975000Y-93600000D01*
X143101000Y-93600000D01*
X143168039Y-93619685D01*
X143213794Y-93672489D01*
X143225000Y-93724000D01*
X143225000Y-94799999D01*
X143287472Y-94799999D01*
X143287486Y-94799998D01*
X143390197Y-94789505D01*
X143556619Y-94734358D01*
X143556624Y-94734356D01*
X143705842Y-94642317D01*
X143799464Y-94548695D01*
X143860787Y-94515210D01*
X143930479Y-94520194D01*
X143974827Y-94548695D01*
X144068844Y-94642712D01*
X144218166Y-94734814D01*
X144384703Y-94789999D01*
X144487491Y-94800500D01*
X145112508Y-94800499D01*
X145112516Y-94800498D01*
X145112519Y-94800498D01*
X145168802Y-94794748D01*
X145215297Y-94789999D01*
X145381834Y-94734814D01*
X145531156Y-94642712D01*
X145655212Y-94518656D01*
X145747314Y-94369334D01*
X145802499Y-94202797D01*
X145813000Y-94100009D01*
X145812999Y-93099992D01*
X145802499Y-92997203D01*
X145747314Y-92830666D01*
X145655212Y-92681344D01*
X145531156Y-92557288D01*
X145381834Y-92465186D01*
X145215297Y-92410001D01*
X145215295Y-92410000D01*
X145112516Y-92399500D01*
X144500098Y-92399500D01*
X144433059Y-92379815D01*
X144412417Y-92363181D01*
X143687590Y-91638355D01*
X143687588Y-91638352D01*
X143568717Y-91519481D01*
X143568716Y-91519480D01*
X143481904Y-91469360D01*
X143481904Y-91469359D01*
X143481900Y-91469358D01*
X143431785Y-91440423D01*
X143279057Y-91399499D01*
X143120943Y-91399499D01*
X143113347Y-91399499D01*
X143113331Y-91399500D01*
X130048098Y-91399500D01*
X129981059Y-91379815D01*
X129960417Y-91363181D01*
X129254481Y-90657245D01*
X128539414Y-89942179D01*
X128505930Y-89880857D01*
X128510914Y-89811165D01*
X128552786Y-89755232D01*
X128618250Y-89730815D01*
X128627074Y-89730499D01*
X128927872Y-89730499D01*
X128927885Y-89730498D01*
X128966744Y-89726320D01*
X128993252Y-89726320D01*
X129032127Y-89730500D01*
X129427872Y-89730499D01*
X129427873Y-89730498D01*
X129427885Y-89730498D01*
X129466744Y-89726320D01*
X129493252Y-89726320D01*
X129532127Y-89730500D01*
X129927872Y-89730499D01*
X129927873Y-89730498D01*
X129927885Y-89730498D01*
X129966744Y-89726320D01*
X129993252Y-89726320D01*
X130032127Y-89730500D01*
X130427872Y-89730499D01*
X130487483Y-89724091D01*
X130487486Y-89724089D01*
X130491744Y-89723632D01*
X130510618Y-89723049D01*
X130520984Y-89723519D01*
X130522517Y-89724091D01*
X130582127Y-89730500D01*
X130674861Y-89730499D01*
X130677647Y-89730626D01*
X130708138Y-89741101D01*
X130739066Y-89750183D01*
X130740972Y-89752382D01*
X130743726Y-89753329D01*
X130763710Y-89778623D01*
X130784822Y-89802986D01*
X130785257Y-89805895D01*
X130787041Y-89808152D01*
X130789753Y-89835890D01*
X130794281Y-89866107D01*
X130794500Y-89866107D01*
X130794500Y-89867565D01*
X130794967Y-89870682D01*
X130794500Y-89874229D01*
X130794500Y-89874234D01*
X130794500Y-90025766D01*
X130805962Y-90068543D01*
X130833719Y-90172136D01*
X130871602Y-90237750D01*
X130909485Y-90303365D01*
X131016635Y-90410515D01*
X131147865Y-90486281D01*
X131294234Y-90525500D01*
X131294236Y-90525500D01*
X131445764Y-90525500D01*
X131445766Y-90525500D01*
X131592135Y-90486281D01*
X131723365Y-90410515D01*
X131723374Y-90410505D01*
X131729488Y-90405815D01*
X131794656Y-90380617D01*
X131863101Y-90394650D01*
X131909025Y-90439488D01*
X131909983Y-90438849D01*
X131913009Y-90443378D01*
X131913094Y-90443461D01*
X131913228Y-90443706D01*
X132022860Y-90607781D01*
X132022863Y-90607785D01*
X132162214Y-90747136D01*
X132162218Y-90747139D01*
X132326079Y-90856628D01*
X132326092Y-90856635D01*
X132508160Y-90932049D01*
X132508165Y-90932051D01*
X132508169Y-90932051D01*
X132508170Y-90932052D01*
X132701456Y-90970500D01*
X132701459Y-90970500D01*
X132898543Y-90970500D01*
X133028582Y-90944632D01*
X133091835Y-90932051D01*
X133273914Y-90856632D01*
X133437782Y-90747139D01*
X133577139Y-90607782D01*
X133686632Y-90443914D01*
X133762051Y-90261835D01*
X133774632Y-90198582D01*
X133800500Y-90068543D01*
X133800500Y-89299986D01*
X141962501Y-89299986D01*
X141972994Y-89402697D01*
X142028141Y-89569119D01*
X142028143Y-89569124D01*
X142120184Y-89718345D01*
X142244154Y-89842315D01*
X142393375Y-89934356D01*
X142393380Y-89934358D01*
X142559802Y-89989505D01*
X142559809Y-89989506D01*
X142662519Y-89999999D01*
X142724999Y-89999998D01*
X142725000Y-89999998D01*
X142725000Y-89050000D01*
X141962501Y-89050000D01*
X141962501Y-89299986D01*
X133800500Y-89299986D01*
X133800500Y-88771456D01*
X133762052Y-88578170D01*
X133762051Y-88578169D01*
X133762051Y-88578165D01*
X133762049Y-88578160D01*
X133686635Y-88396092D01*
X133686628Y-88396079D01*
X133603982Y-88272391D01*
X133583104Y-88205713D01*
X133601588Y-88138333D01*
X133653567Y-88091643D01*
X133707084Y-88079500D01*
X141847715Y-88079500D01*
X141914754Y-88099185D01*
X141960509Y-88151989D01*
X141971073Y-88216102D01*
X141962500Y-88300011D01*
X141962500Y-88550000D01*
X142851000Y-88550000D01*
X142918039Y-88569685D01*
X142963794Y-88622489D01*
X142975000Y-88674000D01*
X142975000Y-88800000D01*
X143101000Y-88800000D01*
X143168039Y-88819685D01*
X143213794Y-88872489D01*
X143225000Y-88924000D01*
X143225000Y-89999999D01*
X143287472Y-89999999D01*
X143287486Y-89999998D01*
X143390197Y-89989505D01*
X143556619Y-89934358D01*
X143556624Y-89934356D01*
X143705842Y-89842317D01*
X143799464Y-89748695D01*
X143860787Y-89715210D01*
X143930479Y-89720194D01*
X143974827Y-89748695D01*
X144068844Y-89842712D01*
X144218166Y-89934814D01*
X144384703Y-89989999D01*
X144487491Y-90000500D01*
X145112508Y-90000499D01*
X145112516Y-90000498D01*
X145112519Y-90000498D01*
X145168802Y-89994748D01*
X145215297Y-89989999D01*
X145381834Y-89934814D01*
X145531156Y-89842712D01*
X145655212Y-89718656D01*
X145747314Y-89569334D01*
X145802499Y-89402797D01*
X145813000Y-89300009D01*
X145812999Y-88299992D01*
X145802499Y-88197203D01*
X145747314Y-88030666D01*
X145655212Y-87881344D01*
X145531156Y-87757288D01*
X145381834Y-87665186D01*
X145215297Y-87610001D01*
X145215295Y-87610000D01*
X145112516Y-87599500D01*
X144500097Y-87599500D01*
X144433058Y-87579815D01*
X144412416Y-87563181D01*
X143966590Y-87117355D01*
X143966588Y-87117352D01*
X143847717Y-86998481D01*
X143847716Y-86998480D01*
X143760904Y-86948360D01*
X143760904Y-86948359D01*
X143760900Y-86948358D01*
X143710785Y-86919423D01*
X143558057Y-86878499D01*
X143399943Y-86878499D01*
X143392347Y-86878499D01*
X143392331Y-86878500D01*
X130408057Y-86878500D01*
X130249943Y-86878500D01*
X130097215Y-86919423D01*
X130097214Y-86919423D01*
X130097212Y-86919424D01*
X130097209Y-86919425D01*
X130047096Y-86948359D01*
X130047095Y-86948360D01*
X130003689Y-86973420D01*
X129960285Y-86998479D01*
X129960282Y-86998481D01*
X129749481Y-87209282D01*
X129749477Y-87209287D01*
X129744732Y-87217506D01*
X129737437Y-87224460D01*
X129733538Y-87233753D01*
X129712574Y-87248164D01*
X129694162Y-87265719D01*
X129682732Y-87268680D01*
X129675961Y-87273335D01*
X129646779Y-87277994D01*
X129641199Y-87279440D01*
X129639255Y-87279500D01*
X129532128Y-87279501D01*
X129488575Y-87284182D01*
X129483853Y-87284329D01*
X129481355Y-87283679D01*
X129466748Y-87283679D01*
X129427874Y-87279500D01*
X129032130Y-87279500D01*
X129032119Y-87279501D01*
X128993253Y-87283679D01*
X128966748Y-87283679D01*
X128927874Y-87279500D01*
X128532130Y-87279500D01*
X128532119Y-87279501D01*
X128493253Y-87283679D01*
X128466748Y-87283679D01*
X128427874Y-87279500D01*
X128032130Y-87279500D01*
X128032119Y-87279501D01*
X127993253Y-87283679D01*
X127966748Y-87283679D01*
X127927874Y-87279500D01*
X127532130Y-87279500D01*
X127532119Y-87279501D01*
X127493253Y-87283679D01*
X127466748Y-87283679D01*
X127427874Y-87279500D01*
X127032130Y-87279500D01*
X127032119Y-87279501D01*
X126993253Y-87283679D01*
X126966748Y-87283679D01*
X126927874Y-87279500D01*
X126532129Y-87279500D01*
X126532120Y-87279501D01*
X126468248Y-87286367D01*
X126441742Y-87286367D01*
X126437483Y-87285909D01*
X126377873Y-87279500D01*
X126377864Y-87279500D01*
X125682132Y-87279500D01*
X125682117Y-87279501D01*
X125640904Y-87283931D01*
X125614402Y-87283931D01*
X125577834Y-87280000D01*
X125480000Y-87280000D01*
X125479948Y-87280051D01*
X125460315Y-87346914D01*
X125430312Y-87379141D01*
X125372452Y-87422455D01*
X125286206Y-87537664D01*
X125286202Y-87537671D01*
X125235908Y-87672517D01*
X125229501Y-87732116D01*
X125229500Y-87732135D01*
X125229500Y-88260994D01*
X125219962Y-88293473D01*
X125210981Y-88326185D01*
X125210134Y-88326945D01*
X125209815Y-88328033D01*
X125184236Y-88350197D01*
X125158991Y-88372863D01*
X125157868Y-88373044D01*
X125157011Y-88373788D01*
X125123482Y-88378608D01*
X125090019Y-88384024D01*
X125088977Y-88383570D01*
X125087853Y-88383732D01*
X125057031Y-88369656D01*
X125025962Y-88356124D01*
X125024962Y-88355010D01*
X125024297Y-88354707D01*
X125002384Y-88329864D01*
X125000882Y-88327616D01*
X124980019Y-88260933D01*
X124980000Y-88258748D01*
X124980000Y-87280000D01*
X124882155Y-87280000D01*
X124822627Y-87286401D01*
X124822620Y-87286403D01*
X124687913Y-87336645D01*
X124687906Y-87336649D01*
X124572812Y-87422809D01*
X124572809Y-87422812D01*
X124486649Y-87537906D01*
X124486645Y-87537913D01*
X124436403Y-87672620D01*
X124436401Y-87672627D01*
X124430000Y-87732155D01*
X124430000Y-87752510D01*
X124410315Y-87819549D01*
X124357511Y-87865304D01*
X124288353Y-87875248D01*
X124281812Y-87874128D01*
X124258542Y-87869500D01*
X124258541Y-87869500D01*
X124061459Y-87869500D01*
X124061457Y-87869500D01*
X123868170Y-87907947D01*
X123868160Y-87907950D01*
X123686092Y-87983364D01*
X123686079Y-87983371D01*
X123522218Y-88092860D01*
X123522214Y-88092863D01*
X123411681Y-88203397D01*
X123350358Y-88236882D01*
X123280666Y-88231898D01*
X123224733Y-88190026D01*
X123200316Y-88124562D01*
X123200000Y-88115716D01*
X123200000Y-85724000D01*
X123219685Y-85656961D01*
X123272489Y-85611206D01*
X123324000Y-85600000D01*
X149476000Y-85600000D01*
X149543039Y-85619685D01*
G37*
%TD.AperFunction*%
%TD*%
M02*
